<svg width="15" height="15" viewBox="0 0 15 15" fill="none" xmlns="http://www.w3.org/2000/svg">
<path d="M2.0091 11.0794L0.492432 14.7726H13.7879L12.7636 11.695L11.2273 9.84839H3.54546L2.0091 11.0794Z" fill="#F1FAEE"/>
<path d="M7.06491 0C6.17567 4.28284e-05 5.30643 0.244937 4.56708 0.703715C3.82774 1.16249 3.2515 1.81455 2.91125 2.57743C2.571 3.3403 2.482 4.17974 2.65553 4.98958C2.82905 5.79942 3.25729 6.5433 3.88611 7.12714C4.51492 7.71098 5.31606 8.10857 6.18821 8.26962C7.06036 8.43067 7.96436 8.34796 8.78589 8.03193C9.60742 7.71591 10.3096 7.18078 10.8036 6.4942C11.2976 5.80762 11.5612 5.00044 11.5612 4.17472C11.5598 3.06784 11.0856 2.00667 10.2427 1.22402C9.39978 0.441375 8.25693 0.00117487 7.06491 0ZM7.06491 6.99642C6.46396 6.99638 5.87651 6.83087 5.37686 6.52082C4.87721 6.21077 4.48778 5.77011 4.25783 5.25455C4.02788 4.73899 3.96772 4.1717 4.08497 3.6244C4.20223 3.07709 4.49162 2.57437 4.91655 2.17978C5.34149 1.7852 5.88289 1.51648 6.47229 1.4076C7.06169 1.29873 7.67262 1.35458 8.22784 1.56811C8.78306 1.78164 9.25762 2.14325 9.59152 2.60721C9.92542 3.07118 10.1037 3.61666 10.1037 4.17468C10.1028 4.92281 9.7824 5.64006 9.2127 6.16906C8.643 6.69807 7.87058 6.99562 7.06491 6.99642Z" fill="#F1FAEE"/>
<path d="M0.50473 14.7489C0.591365 14.7721 0.68184 14.7783 0.770953 14.7673C0.860067 14.7562 0.946062 14.728 1.024 14.6844C1.10193 14.6408 1.17027 14.5825 1.22508 14.513C1.27988 14.4435 1.32009 14.3641 1.34337 14.2793L2.03022 11.8063C2.14886 11.3821 2.4068 11.0077 2.76442 10.7405C3.12203 10.4734 3.55955 10.3283 4.00976 10.3276H10.1206C10.5708 10.3283 11.0084 10.4734 11.366 10.7405C11.7236 11.0077 11.9816 11.3821 12.1002 11.8063L12.7871 14.2793C12.8263 14.4208 12.9121 14.5457 13.0313 14.6348C13.1504 14.7239 13.2963 14.7722 13.4463 14.7724C13.5069 14.7724 13.5673 14.7645 13.6257 14.7489C13.7124 14.726 13.7936 14.6867 13.8647 14.6331C13.9358 14.5795 13.9953 14.5128 14.04 14.4367C14.0846 14.3606 14.1135 14.2767 14.1249 14.1897C14.1363 14.1027 14.13 14.0144 14.1065 13.9297L13.4196 11.4567C13.2221 10.7496 12.7924 10.1254 12.1963 9.68012C11.6003 9.23482 10.8711 8.99303 10.1207 8.99194H4.00976C3.25936 8.99303 2.53011 9.23482 1.93409 9.68012C1.33808 10.1254 0.908301 10.7496 0.710835 11.4567L0.023983 13.9297C0.000397247 14.0144 -0.00587317 14.1027 0.00553054 14.1897C0.0169343 14.2767 0.0457882 14.3606 0.0904412 14.4367C0.135094 14.5128 0.19467 14.5795 0.265758 14.6331C0.336847 14.6867 0.418053 14.726 0.50473 14.7489Z" fill="#F1FAEE"/>
<circle cx="7.38642" cy="4.43183" r="3.44697" fill="#F1FAEE"/>
</svg>
