<svg width="39" height="37" viewBox="0 0 39 37" fill="none" xmlns="http://www.w3.org/2000/svg">
<mask id="path-1-inside-1_330_17" fill="white">
<path fill-rule="evenodd" clip-rule="evenodd" d="M33.5592 26.1111C34.8693 23.6314 35.6111 20.805 35.6111 17.8054C35.6111 7.97175 27.6393 0 17.8056 0C7.972 0 0.000244141 7.97175 0.000244141 17.8054C0.000244141 27.6391 7.972 35.6108 17.8056 35.6108C20.8619 35.6108 23.7384 34.8408 26.2515 33.4841L35.3967 36.8873C38.5 37.5001 38.5001 34.9999 37.5 33.4999L33.5592 26.1111Z"/>
</mask>
<path d="M33.5592 26.1111L30.0225 24.2426L29.0306 26.12L30.0298 27.9934L33.5592 26.1111ZM26.2515 33.4841L27.6466 29.7353L25.9471 29.1029L24.3514 29.9642L26.2515 33.4841ZM35.3967 36.8873L34.0017 40.6361L34.3047 40.7489L34.6218 40.8115L35.3967 36.8873ZM37.5 33.4999L33.9706 35.3823L34.063 35.5556L34.1719 35.7189L37.5 33.4999ZM31.6111 17.8054C31.6111 20.1382 31.0357 22.3248 30.0225 24.2426L37.096 27.9796C38.7029 24.938 39.6111 21.4718 39.6111 17.8054H31.6111ZM17.8056 4C25.4302 4 31.6111 10.1809 31.6111 17.8054H39.6111C39.6111 5.76261 29.8484 -4 17.8056 -4V4ZM4.00024 17.8054C4.00024 10.1809 10.1811 4 17.8056 4V-4C5.76286 -4 -3.99976 5.76261 -3.99976 17.8054H4.00024ZM17.8056 31.6108C10.1811 31.6108 4.00024 25.4299 4.00024 17.8054H-3.99976C-3.99976 29.8482 5.76286 39.6108 17.8056 39.6108V31.6108ZM24.3514 29.9642C22.4076 31.0136 20.1823 31.6108 17.8056 31.6108V39.6108C21.5416 39.6108 25.0692 38.668 28.1516 37.004L24.3514 29.9642ZM24.8565 37.233L34.0017 40.6361L36.7918 33.1384L27.6466 29.7353L24.8565 37.233ZM34.6218 40.8115C35.8476 41.0536 37.2909 41.1003 38.6861 40.5311C40.2151 39.9074 41.2604 38.713 41.7539 37.3317C42.5999 34.9639 41.7212 32.6204 40.8281 31.2809L34.1719 35.7189C34.1525 35.6898 34.1336 35.6579 34.1162 35.5757C34.1043 35.5195 34.0335 35.163 34.2203 34.6401C34.4509 33.9947 34.9768 33.4042 35.6643 33.1238C36.2179 32.8979 36.4975 33.0274 36.1716 32.9631L34.6218 40.8115ZM41.0294 31.6176L37.0886 24.2287L30.0298 27.9934L33.9706 35.3823L41.0294 31.6176Z" fill="#B7E4C7" mask="url(#path-1-inside-1_330_17)"/>
</svg>
