<svg width="22" height="18" viewBox="0 0 22 18" fill="none" xmlns="http://www.w3.org/2000/svg">
<path d="M13.4811 7.05717C14.3497 4.95808 13.27 2.80472 12.4858 1.89994L16.1954 0.814209L18.5478 3.61902L17.4621 7.05717H13.4811Z" fill="#2F363D"/>
<path d="M7.95188 0.717041C7.01542 0.71709 6.1 0.994829 5.32139 1.51514C4.54278 2.03545 3.93594 2.77496 3.57762 3.64015C3.21929 4.50534 3.12557 5.45736 3.30831 6.37582C3.49105 7.29428 3.94204 8.13792 4.60425 8.80007C5.26646 9.46221 6.11014 9.91312 7.02862 10.0958C7.94709 10.2784 8.8991 10.1846 9.76426 9.82621C10.6294 9.4678 11.3689 8.8609 11.8891 8.08223C12.4093 7.30357 12.687 6.38813 12.687 5.45167C12.6855 4.19634 12.1862 2.99284 11.2985 2.10523C10.4108 1.21761 9.20721 0.718373 7.95188 0.717041ZM7.95188 8.65182C7.31901 8.65177 6.70037 8.46406 6.17418 8.11243C5.64799 7.7608 5.23788 7.26103 4.99571 6.67633C4.75355 6.09162 4.6902 5.44824 4.81368 4.82754C4.93716 4.20683 5.24192 3.63668 5.68942 3.18917C6.13693 2.74167 6.70708 2.43691 7.32778 2.31343C7.94849 2.18995 8.59187 2.2533 9.17657 2.49547C9.76128 2.73763 10.261 3.14774 10.6127 3.67393C10.9643 4.20012 11.152 4.81876 11.1521 5.45163C11.1511 6.30009 10.8137 7.11354 10.2137 7.71349C9.61379 8.31345 8.80034 8.6509 7.95188 8.65182Z" fill="#2F363D"/>
<path d="M0.566526 17.3447C0.663768 17.3714 0.76532 17.3786 0.865344 17.3658C0.965368 17.3531 1.06189 17.3208 1.14937 17.2706C1.23684 17.2205 1.31355 17.1535 1.37507 17.0736C1.43659 16.9938 1.48171 16.9025 1.50784 16.8051L2.27879 13.9632C2.41195 13.4757 2.70147 13.0454 3.10287 12.7384C3.50427 12.4315 3.99536 12.2647 4.50069 12.2639H11.3597C11.8651 12.2647 12.3562 12.4314 12.7576 12.7384C13.159 13.0454 13.4485 13.4757 13.5817 13.9632L14.3526 16.8051C14.3967 16.9677 14.493 17.1112 14.6267 17.2136C14.7605 17.316 14.9242 17.3716 15.0926 17.3717C15.1606 17.3718 15.2283 17.3627 15.2939 17.3447C15.3912 17.3184 15.4824 17.2732 15.5622 17.2117C15.642 17.1501 15.7088 17.0734 15.759 16.986C15.8091 16.8985 15.8415 16.8021 15.8543 16.7021C15.8671 16.6022 15.86 16.5006 15.8336 16.4034L15.0626 13.5615C14.841 12.7489 14.3586 12.0316 13.6896 11.5198C13.0206 11.0081 12.2021 10.7303 11.3598 10.729H4.50069C3.65842 10.7303 2.83987 11.0081 2.17089 11.5198C1.5019 12.0316 1.01951 12.7489 0.797865 13.5615L0.0269193 16.4034C0.000445883 16.5006 -0.00659225 16.6022 0.00620766 16.7021C0.0190076 16.8021 0.0513942 16.8985 0.101514 16.986C0.151634 17.0734 0.218504 17.1501 0.298296 17.2117C0.378088 17.2732 0.469237 17.3184 0.566526 17.3447Z" fill="#2F363D"/>
<path d="M15.1642 6.74316C14.9096 6.74314 14.6565 6.70594 14.4127 6.63274C14.218 6.57487 14.0082 6.59661 13.8294 6.69319C13.6507 6.78977 13.5175 6.9533 13.4592 7.14791C13.4009 7.34253 13.4221 7.55234 13.5182 7.73132C13.6144 7.91031 13.7776 8.04386 13.972 8.10268C14.541 8.27317 15.1401 8.31916 15.7285 8.23754C16.3168 8.15592 16.8807 7.94859 17.3819 7.62964C17.883 7.3107 18.3096 6.88761 18.6326 6.38914C18.9557 5.89066 19.1676 5.32848 19.2541 4.7408C19.3406 4.15312 19.2995 3.55371 19.1337 2.98331C18.9679 2.41291 18.6813 1.88489 18.2932 1.43513C17.9052 0.985367 17.4249 0.624406 16.885 0.376777C16.3451 0.129148 15.7582 0.000654699 15.1642 2.90619e-05C14.2497 -0.00343692 13.3612 0.303211 12.6435 0.869903C12.564 0.932106 12.4976 1.00936 12.4481 1.09725C12.3985 1.18514 12.3668 1.28194 12.3547 1.38211C12.3426 1.48228 12.3503 1.58386 12.3775 1.68103C12.4047 1.7782 12.4508 1.86905 12.5131 1.9484C12.5754 2.02774 12.6528 2.09402 12.7408 2.14343C12.8287 2.19285 12.9256 2.22443 13.0258 2.23638C13.126 2.24833 13.2275 2.2404 13.3246 2.21306C13.4218 2.18572 13.5126 2.1395 13.5918 2.07703C14.0395 1.72361 14.5938 1.53249 15.1642 1.53492C15.8548 1.53492 16.5172 1.80928 17.0056 2.29765C17.4939 2.78602 17.7683 3.44838 17.7683 4.13904C17.7683 4.82969 17.4939 5.49206 17.0056 5.98043C16.5172 6.46879 15.8548 6.74316 15.1642 6.74316Z" fill="#2F363D"/>
<path d="M20.017 12.3619L20.4877 14.255C20.5371 14.4522 20.6628 14.6218 20.8372 14.7264C21.0115 14.8311 21.2203 14.8623 21.4176 14.8132C21.615 14.7641 21.7847 14.6387 21.8897 14.4645C21.9947 14.2904 22.0263 14.0817 21.9776 13.8843L21.5059 11.9882C21.2851 11.1144 20.779 10.3394 20.0678 9.78592C19.3566 9.23245 18.4809 8.93223 17.5797 8.93286H13.0465C12.843 8.93286 12.6478 9.01372 12.5038 9.15764C12.3599 9.30157 12.2791 9.49677 12.2791 9.70031C12.2791 9.90385 12.3599 10.0991 12.5038 10.243C12.6478 10.3869 12.843 10.4678 13.0465 10.4678H17.5797C18.1388 10.4672 18.6821 10.6532 19.1236 10.9963C19.565 11.3394 19.8794 11.8199 20.017 12.3619Z" fill="#2F363D"/>
<circle cx="7.8716" cy="5.51906" r="3.34767" fill="#2F363D"/>
<path d="M16.0145 14.8383C15.7996 11.8556 13.8916 10.8511 12.7573 10.4049L18.0955 9.86206C20.4595 9.86206 21.2632 13.1494 21.3527 14.8383H16.0145Z" fill="#2F363D"/>
<path d="M2.3959 13.3003L0.723877 17.3718H15.3813L14.2521 13.9789L12.5583 11.9431H4.08964L2.3959 13.3003Z" fill="#2F363D"/>
</svg>
