<svg width="14" height="15" viewBox="0 0 14 15" fill="none" xmlns="http://www.w3.org/2000/svg">
<path d="M7.59758 0.399748L13.431 4.95174C13.6672 5.13632 13.8054 5.41886 13.8054 5.71814V13.0585C13.8054 13.5955 13.3702 14.0307 12.8332 14.0307H9.59606C9.45099 14.0307 9.33325 13.913 9.33325 13.7679V11.8007C9.33325 10.5087 8.28582 9.46131 6.99386 9.46131C5.7019 9.46131 4.65448 10.5087 4.65448 11.8007V13.7679C4.65448 13.913 4.53674 14.0307 4.39166 14.0307H1.16657C0.629566 14.0307 0.194336 13.5955 0.194336 13.0585V5.71814C0.194336 5.41886 0.332576 5.13631 0.568801 4.95174L6.4022 0.399748C6.75312 0.12554 7.24668 0.12554 7.59758 0.399748Z" fill="#F1FAEE"/>
<path fill-rule="evenodd" clip-rule="evenodd" d="M6.28214 0.247234C6.7037 -0.0824113 7.29614 -0.0824113 7.7177 0.247234L13.5511 4.79845C13.8344 5.01948 14 5.359 14 5.71828V13.0586C14 13.7027 13.4774 14.2253 12.8333 14.2253H9.59617C9.34324 14.2253 9.13891 14.021 9.13891 13.7681V11.8008C9.13891 10.6159 8.17883 9.6559 6.99397 9.6559C5.80911 9.6559 4.84903 10.616 4.84903 11.8008V13.7681C4.84903 14.021 4.64471 14.2253 4.39177 14.2253H1.16668C0.522575 14.2253 0 13.7027 0 13.0586V5.71828C0 5.359 0.165583 5.01948 0.448899 4.79845L6.28214 0.247234ZM7.47844 0.553332C7.1974 0.333821 6.80242 0.333821 6.52139 0.553332L0.687991 5.10533C0.498861 5.25268 0.388718 5.47903 0.388718 5.71828V13.0586C0.388718 13.4885 0.736603 13.8364 1.1665 13.8364H4.3916C4.42957 13.8364 4.45996 13.806 4.45996 13.7681V11.8008C4.45996 10.4017 5.59473 9.26702 6.99379 9.26702C8.39285 9.26702 9.52762 10.4018 9.52762 11.8008V13.7681C9.52762 13.806 9.55801 13.8364 9.59598 13.8364H12.8331C13.263 13.8364 13.6109 13.4885 13.6109 13.0586V5.71828C13.6109 5.47901 13.5008 5.25268 13.3116 5.10533L7.47844 0.553332Z" fill="#F1FAEE"/>
</svg>
