<svg width="48" height="46" viewBox="0 0 48 46" fill="none" xmlns="http://www.w3.org/2000/svg">
<rect x="14.3644" y="29.8263" width="23.1361" height="3.27756" transform="rotate(-45 14.3644 29.8263)" fill="#B7E4C7"/>
<rect x="5.63626" y="24.1426" width="22.8008" height="6.90996" rx="3" transform="rotate(45.202 5.63626 24.1426)" fill="#B7E4C7"/>
<rect x="2.59674" y="34.853" width="12.0751" height="3.65946" rx="1.82973" transform="rotate(45.202 2.59674 34.853)" fill="#B7E4C7"/>
<rect x="42.1012" y="21.8574" width="22.8008" height="6.90996" rx="3" transform="rotate(-134.798 42.1012 21.8574)" fill="#B7E4C7"/>
<rect x="45.1407" y="11.1469" width="12.0751" height="3.65946" rx="1.82973" transform="rotate(-134.798 45.1407 11.1469)" fill="#B7E4C7"/>
<rect x="45.1407" y="11.1469" width="12.0751" height="3.65946" rx="1.82973" transform="rotate(-134.798 45.1407 11.1469)" fill="#B7E4C7"/>
<rect x="29.6266" y="32.3201" width="11.6711" height="3.59111" transform="rotate(90 29.6266 32.3201)" fill="#B7E4C7"/>
<rect x="35.0133" y="29.6267" width="14.3644" height="3.59111" transform="rotate(90 35.0133 29.6267)" fill="#B7E4C7"/>
<rect x="40.4" y="26.9333" width="17.0578" height="3.59111" transform="rotate(90 40.4 26.9333)" fill="#B7E4C7"/>
</svg>
