<svg width="72" height="70" viewBox="0 0 72 70" fill="none" xmlns="http://www.w3.org/2000/svg">
<rect x="9.53459" y="1.10379" width="61.0343" height="61.0343" rx="8" transform="rotate(6.30593 9.53459 1.10379)" fill="#212529" stroke="#C6C6C6" stroke-width="2"/>
<rect x="6.41379" y="1.08351" width="61.0343" height="61.0343" rx="8" transform="rotate(5.01016 6.41379 1.08351)" fill="#212529" stroke="#C6C6C6" stroke-width="2"/>
<rect x="1.86348" y="5.31738" width="61.0343" height="61.0343" rx="8" fill="#212529" stroke="#C6C6C6" stroke-width="2"/>
<path d="M31.0543 34.824C25.2312 32.2675 24.4263 25.2371 24.7518 22.219H42.8604C44.1386 29.2494 39.1913 33.5516 36.5579 34.824C35.5637 35.8182 36.1436 37.0727 36.5579 37.5758C42.452 39.7772 43.2154 46.8372 42.8604 50.092H25.1069C23.6866 43.2746 28.48 38.9073 31.0543 37.5758C32.0485 36.2975 31.4685 35.2086 31.0543 34.824Z" stroke="#C6C6C6" stroke-width="2"/>
<rect x="22" y="20" width="23.4346" height="2.30795" rx="1.15398" fill="#C6C6C6"/>
<rect x="22" y="49.8259" width="23.4346" height="2.30795" rx="1.15398" fill="#C6C6C6"/>
<path d="M38.3619 46.8645H29.9331C29.2775 43.0541 32.4695 41.4894 34.1475 41.1833C37.7063 41.872 38.4399 45.2577 38.3619 46.8645Z" fill="#C6C6C6" stroke="#C6C6C6"/>
<path d="M31.2351 30.652L36.3275 30.652C36.7236 32.9144 34.7951 33.8434 33.7813 34.0251C31.6312 33.6163 31.188 31.606 31.2351 30.652Z" fill="#C6C6C6" stroke="#C6C6C6"/>
</svg>
