<svg width="72" height="70" viewBox="0 0 72 70" fill="none" xmlns="http://www.w3.org/2000/svg">
<rect x="9.53459" y="1.10379" width="61.0343" height="61.0343" rx="8" transform="rotate(6.30593 9.53459 1.10379)" fill="#212529" stroke="#C29E7E" stroke-width="2"/>
<rect x="6.41379" y="1.08351" width="61.0343" height="61.0343" rx="8" transform="rotate(5.01016 6.41379 1.08351)" fill="#212529" stroke="#C29E7E" stroke-width="2"/>
<rect x="1.86349" y="5.31738" width="61.0343" height="61.0343" rx="8" fill="#212529" stroke="#C29E7E" stroke-width="2"/>
<path d="M29.0543 34.824C23.2312 32.2675 22.4263 25.2371 22.7518 22.219H40.8604C42.1386 29.2494 37.1913 33.5516 34.5579 34.824C33.5637 35.8182 34.1436 37.0727 34.5579 37.5758C40.452 39.7772 41.2154 46.8372 40.8604 50.092H23.1069C21.6866 43.2746 26.48 38.9073 29.0543 37.5758C30.0485 36.2975 29.4685 35.2086 29.0543 34.824Z" stroke="#C29E7E" stroke-width="2"/>
<rect x="20" y="20" width="23.4346" height="2.30795" rx="1.15398" fill="#C29E7E"/>
<rect x="20" y="49.8259" width="23.4346" height="2.30795" rx="1.15398" fill="#C29E7E"/>
<path d="M36.3619 46.8645H27.9331C27.2775 43.0541 30.4695 41.4894 32.1475 41.1833C35.7063 41.872 36.4399 45.2577 36.3619 46.8645Z" fill="#C29E7E" stroke="#C29E7E"/>
<path d="M29.2351 30.652L34.3276 30.652C34.7236 32.9144 32.7951 33.8434 31.7813 34.0251C29.6312 33.6163 29.188 31.606 29.2351 30.652Z" fill="#C29E7E" stroke="#C29E7E"/>
</svg>
