<svg width="72" height="70" viewBox="0 0 72 70" fill="none" xmlns="http://www.w3.org/2000/svg">
<g opacity="0.3">
<rect x="9.53463" y="1.10379" width="61.0343" height="61.0343" rx="8" transform="rotate(6.30593 9.53463 1.10379)" fill="#212529" stroke="#D9D9D9" stroke-width="2"/>
<rect x="6.41379" y="1.08351" width="61.0343" height="61.0343" rx="8" transform="rotate(5.01016 6.41379 1.08351)" fill="#212529" stroke="#D9D9D9" stroke-width="2"/>
<rect x="1.86346" y="5.31738" width="61.0343" height="61.0343" rx="8" fill="#212529" stroke="#D9D9D9" stroke-width="2"/>
</g>
<g opacity="0.3">
<path d="M30.0543 34.824C24.2312 32.2675 23.4263 25.2371 23.7518 22.219H41.8604C43.1386 29.2494 38.1913 33.5516 35.5579 34.824C34.5637 35.8182 35.1436 37.0727 35.5579 37.5758C41.452 39.7772 42.2154 46.8372 41.8604 50.092H24.1069C22.6866 43.2746 27.48 38.9073 30.0543 37.5758C31.0485 36.2975 30.4685 35.2086 30.0543 34.824Z" stroke="#D9D9D9" stroke-width="2"/>
<rect x="21" y="20" width="23.4346" height="2.30795" rx="1.15398" fill="#D9D9D9"/>
<rect x="21" y="49.8259" width="23.4346" height="2.30795" rx="1.15398" fill="#D9D9D9"/>
<path d="M37.3619 46.8645H28.9331C28.2775 43.0541 31.4695 41.4894 33.1475 41.1833C36.7063 41.872 37.4399 45.2577 37.3619 46.8645Z" fill="#D9D9D9" stroke="#D9D9D9"/>
<path d="M30.2351 30.652L35.3276 30.652C35.7236 32.9144 33.7951 33.8434 32.7813 34.0251C30.6312 33.6163 30.188 31.606 30.2351 30.652Z" fill="#D9D9D9" stroke="#D9D9D9"/>
</g>
</svg>
