<svg width="72" height="70" viewBox="0 0 72 70" fill="none" xmlns="http://www.w3.org/2000/svg">
<rect x="9.53459" y="1.10379" width="61.0343" height="61.0343" rx="8" transform="rotate(6.30593 9.53459 1.10379)" fill="#212529" stroke="#F0D882" stroke-width="2"/>
<rect x="6.41379" y="1.08351" width="61.0343" height="61.0343" rx="8" transform="rotate(5.01016 6.41379 1.08351)" fill="#212529" stroke="#F0D882" stroke-width="2"/>
<rect x="1.86349" y="5.31738" width="61.0343" height="61.0343" rx="8" fill="#212529" stroke="#F0D882" stroke-width="2"/>
<rect x="22.0997" y="34.7532" width="19.9776" height="2.83012" fill="#F0D882"/>
<rect x="20.2409" y="25.9536" width="19.6881" height="5.96664" rx="2.98332" transform="rotate(90.202 20.2409 25.9536)" fill="#F0D882"/>
<rect x="11.8454" y="30.6372" width="10.4266" height="3.15988" rx="1.57994" transform="rotate(90.202 11.8454 30.6372)" fill="#F0D882"/>
<rect x="43.9006" y="46.823" width="19.6881" height="5.96664" rx="2.98332" transform="rotate(-89.798 43.9006 46.823)" fill="#F0D882"/>
<rect x="52.2961" y="42.1392" width="10.4266" height="3.15988" rx="1.57994" transform="rotate(-89.798 52.2961 42.1392)" fill="#F0D882"/>
<rect x="52.2961" y="42.1392" width="10.4266" height="3.15988" rx="1.57994" transform="rotate(-89.798 52.2961 42.1392)" fill="#F0D882"/>
</svg>
