<svg width="73" height="73" viewBox="0 0 73 73" fill="none" xmlns="http://www.w3.org/2000/svg">
<rect x="1" y="1" width="71" height="71" rx="8" fill="#212529" stroke="#C6C6C6" stroke-width="2"/>
<path d="M33.5406 35.8946C26.1185 32.6361 25.0926 23.6752 25.5075 19.8284H48.5885C50.2178 28.7892 43.912 34.2729 40.5554 35.8946C39.2882 37.1618 40.0274 38.7609 40.5554 39.402C48.0681 42.2079 49.0411 51.2065 48.5885 55.3551H25.9601C24.1498 46.6657 30.2595 41.0991 33.5406 39.402C34.8078 37.7727 34.0686 36.3849 33.5406 35.8946Z" stroke="#C6C6C6" stroke-width="2"/>
<rect x="22" y="17" width="29.8696" height="2.9417" rx="1.47085" fill="#C6C6C6"/>
<rect x="22" y="55.0159" width="29.8696" height="2.9417" rx="1.47085" fill="#C6C6C6"/>
<path d="M42.8548 51.2411H32.1114C31.2758 46.3844 35.3444 44.3901 37.4831 44C42.0192 44.8777 42.9542 49.1931 42.8548 51.2411Z" fill="#C6C6C6" stroke="#C6C6C6"/>
<path d="M33.771 30.5771L40.2618 30.5771C40.7666 33.4607 38.3085 34.6448 37.0164 34.8765C34.2759 34.3553 33.7109 31.7931 33.771 30.5771Z" fill="#C6C6C6" stroke="#C6C6C6"/>
</svg>
