<svg width="64" height="64" viewBox="0 0 64 64" fill="none" xmlns="http://www.w3.org/2000/svg">
<g opacity="0.3">
<rect x="1.86346" y="1.31738" width="61.0343" height="61.0343" rx="8" fill="#212529" stroke="#D9D9D9" stroke-width="2"/>
</g>
<g opacity="0.3">
<path d="M30.0543 30.824C24.2312 28.2675 23.4263 21.2371 23.7518 18.219H41.8604C43.1386 25.2494 38.1913 29.5516 35.5579 30.824C34.5637 31.8182 35.1436 33.0727 35.5579 33.5758C41.452 35.7772 42.2154 42.8372 41.8604 46.092H24.1069C22.6866 39.2746 27.48 34.9073 30.0543 33.5758C31.0485 32.2975 30.4685 31.2086 30.0543 30.824Z" stroke="#D9D9D9" stroke-width="2"/>
<rect x="21" y="16" width="23.4346" height="2.30795" rx="1.15398" fill="#D9D9D9"/>
<rect x="21" y="45.8259" width="23.4346" height="2.30795" rx="1.15398" fill="#D9D9D9"/>
<path d="M37.3619 42.8645H28.9331C28.2775 39.0541 31.4695 37.4894 33.1475 37.1833C36.7063 37.872 37.4399 41.2577 37.3619 42.8645Z" fill="#D9D9D9" stroke="#D9D9D9"/>
<path d="M30.2351 26.652L35.3276 26.652C35.7236 28.9144 33.7951 29.8434 32.7813 30.0251C30.6312 29.6163 30.188 27.606 30.2351 26.652Z" fill="#D9D9D9" stroke="#D9D9D9"/>
</g>
</svg>
